<svg version="1.1" id="Layer_1" xmlns="http://www.w3.org/2000/svg" xmlns:xlink="http://www.w3.org/1999/xlink" x="0px" y="0px"
	 viewBox="0 0 216 216" style="enable-background:new 0 0 216 216;" xml:space="preserve">
<g id="XMLID_3_">
	<g id="XMLID_1_">
		<g id="XMLID_18_">
			<path id="XMLID_22_" class="add-btn-bars" d="M30.4,123c45.4,0,90.7,0,136.1,0c6.3,0,12.7,0,19,0c7.8,0,15.4-6.9,15-15c-0.4-8.1-6.6-15-15-15
				c-45.4,0-90.7,0-136.1,0c-6.3,0-12.7,0-19,0c-7.8,0-15.4,6.9-15,15C15.8,116.1,22,123,30.4,123L30.4,123z"/>
		</g>
	</g>
	<g id="XMLID_2_">
		<g id="XMLID_16_">
			<path id="XMLID_25_" class="add-btn-bars" d="M93,30.4c0,45.4,0,90.7,0,136.1c0,6.3,0,12.7,0,19c0,7.8,6.9,15.4,15,15c8.1-0.4,15-6.6,15-15
				c0-45.4,0-90.7,0-136.1c0-6.3,0-12.7,0-19c0-7.8-6.9-15.4-15-15C99.9,15.8,93,22,93,30.4L93,30.4z"/>
		</g>
	</g>
</g>
</svg>
