<svg version="1.1" id="Layer_1" xmlns="http://www.w3.org/2000/svg" xmlns:xlink="http://www.w3.org/1999/xlink" x="0px" y="0px"
	 viewBox="0 0 216 216" style="enable-background:new 0 0 216 216;" xml:space="preserve">
<style type="text/css">
	.st0{fill:#F3EA1C;}
</style>
<g id="XMLID_1_">
	<path id="XMLID_51_" class="st0" d="M213.6,64v-5.6c0-5.9-5-10.7-11.1-10.7H12.7c-6.1,0-11.1,4.8-11.1,10.7v5.7
		C2.1,64,2.7,64,3.3,64H213.6z"/>
	<path id="XMLID_40_" class="st0" d="M3.3,81.6c-0.6,0-1.2-0.1-1.7-0.1v76.3c0,5.9,5,10.7,11.1,10.7h189.8c6.1,0,11.1-4.8,11.1-10.7
		V81.6H3.3z M130.7,138.1H26c-3.8,0-6.9-3-6.9-6.6s3.1-6.6,6.9-6.6h104.6c3.8,0,6.9,3,6.9,6.6S134.5,138.1,130.7,138.1z
		 M195.7,138.4c0,5.9-5,10.7-11.1,10.7H170c-6.1,0-11.1-4.8-11.1-10.7v-13.9c0-5.9,5-10.7,11.1-10.7h14.6c6.1,0,11.1,4.8,11.1,10.7
		V138.4z"/>
</g>
</svg>
