<svg version="1.1" xmlns="http://www.w3.org/2000/svg" xmlns:xlink="http://www.w3.org/1999/xlink" x="0px" y="0px"
	 viewBox="0 0 187.2 270" style="enable-background:new 0 0 187.2 270;" xml:space="preserve">
<g id="Base_Marker">
	<path id="XMLID_29_" class="arrow-marker" d="M100,260.2c-3,4.3-9.4,4.3-12.4,0C67.3,231,3.9,136.3,3.9,94.6c0-49.7,40.3-90,90-90
		s90,40.3,90,90C183.8,136.3,120.4,231,100,260.2z M173.3,93.1c0-43.9-35.6-79.5-79.5-79.5S14.3,49.2,14.3,93.1s35.6,79.5,79.5,79.5
		S173.3,137,173.3,93.1z"/>
</g>
<g id="EBT">
	<path id="XMLID_50_" class="st1" d="M107.6,98.4H47.9c-2.2,0-3.9,1.8-3.9,3.9s1.8,3.9,3.9,3.9h59.7c2.2,0,3.9-1.8,3.9-3.9
		S109.8,98.4,107.6,98.4z"/>
	<path id="XMLID_51_" class="ebt-icon" d="M154.8,59.6v-3.2c0-3.4-2.9-6.2-6.4-6.2H38.8c-3.5,0-6.4,2.8-6.4,6.2v3.3c0.3,0,0.7-0.1,1-0.1
		H154.8z"/>
	<path id="XMLID_40_" class="ebt-icon" d="M33.3,69.8c-0.3,0-0.7,0-1-0.1v44c0,3.4,2.9,6.2,6.4,6.2h109.6c3.5,0,6.4-2.8,6.4-6.2v-44H33.3
		z M106.9,102.4H46.5c-2.2,0-4-1.7-4-3.8c0-2.1,1.8-3.8,4-3.8h60.4c2.2,0,4,1.7,4,3.8C110.9,100.7,109.1,102.4,106.9,102.4z
		 M144.4,102.6c0,3.4-2.9,6.2-6.4,6.2h-8.4c-3.5,0-6.4-2.8-6.4-6.2v-8c0-3.4,2.9-6.2,6.4-6.2h8.4c3.5,0,6.4,2.8,6.4,6.2V102.6z"/>
</g>
<g id="Layer_5">
	<path id="XMLID_101_" class="stack-one" d="M144.9,137H42.2c-5.4,0-9.8-3.5-9.8-7.8v5.2c0,4.3,4.4,7.8,9.8,7.8h102.8
		c5.4,0,9.8-3.5,9.8-7.8v-5.2C154.8,133.6,150.4,137,144.9,137z"/>
	<path id="XMLID_100_" class="stack-two" d="M144.9,126.1H42.2c-5.4,0-9.8-3.5-9.8-7.8v5.2c0,4.3,4.4,7.8,9.8,7.8h102.8
		c5.4,0,9.8-3.5,9.8-7.8v-5.2C154.8,122.6,150.4,126.1,144.9,126.1z"/>
</g>
</svg>
