<svg version="1.1"
	 xmlns="http://www.w3.org/2000/svg" xmlns:xlink="http://www.w3.org/1999/xlink" xmlns:a="http://ns.adobe.com/AdobeSVGViewerExtensions/3.0/"
	 x="0px" y="0px" width="179.9px" height="258.9px" viewBox="0 0 179.9 258.9" style="enable-background:new 0 0 179.9 258.9;"
	 xml:space="preserve">
<style type="text/css">
	.st0{fill:#010101;}
	.st1{fill:#7CCCBD;}
</style>
<defs>
</defs>
<path id="XMLID_26_" class="st0" d="M96.2,255.6c-3,4.3-9.4,4.3-12.4,0C63.4,226.4,0,131.7,0,90C0,40.3,40.3,0,90,0s90,40.3,90,90
	C179.9,131.7,116.5,226.4,96.2,255.6z M169.5,88.5C169.5,44.6,133.9,9,90,9S10.5,44.6,10.5,88.5S46.1,168,90,168
	S169.5,132.4,169.5,88.5z"/>
<g id="XMLID_21_">
	<path id="XMLID_23_" class="st1" d="M145,46.9H34.4c-3.3,0-5.9,2.7-5.9,6v57c0,3.3,2.7,6,5.9,6H145c3.3,0,5.9-2.7,5.9-6V53
		C150.9,49.6,148.2,46.9,145,46.9z M88.1,113C71,113,57.2,98.9,57.2,81.5c0-17.4,13.8-31.5,30.9-31.5c17.1,0,30.9,14.1,30.9,31.5
		C119,98.9,105.2,113,88.1,113z"/>
	<path id="XMLID_22_" class="st1" d="M105.5,64.8c-5.4-3.4-10.4,1.4-17,1.6c-0.4-7.3,1.3-7.4,1.3-7.4s3.9-3.9-0.4-2
		c-2.5,1.2-2.6,5.8-2.3,9.4c-6.5-0.4-12.5-4.2-16.6-1.5C65.6,68.2,64,75.2,64,81.8c0,10.1,6,18.8,14.6,22.6c2.9,1.3,6.2,0.4,9.5,0.4
		c2.4,0,4.7,1.3,6.9,0.6c10-3,17.2-12.4,17.2-23.6C112.2,75.2,110.6,68,105.5,64.8z"/>
</g>
<path id="XMLID_20_" class="st0" d="M141.1,132.4H38.3c-5.4,0-9.8-3.5-9.8-7.8v5.2c0,4.3,4.4,7.8,9.8,7.8h102.8
	c5.4,0,9.8-3.5,9.8-7.8v-5.2C150.9,129,146.5,132.4,141.1,132.4z"/>
<path id="XMLID_19_" class="st0" d="M141.1,121.5H38.3c-5.4,0-9.8-3.5-9.8-7.8v5.2c0,4.3,4.4,7.8,9.8,7.8h102.8
	c5.4,0,9.8-3.5,9.8-7.8v-5.2C150.9,118,146.5,121.5,141.1,121.5z"/>
</svg>
