<svg version="1.1" id="Layer_1" xmlns="http://www.w3.org/2000/svg" xmlns:xlink="http://www.w3.org/1999/xlink" x="0px" y="0px"
	 viewBox="0 0 216 216" style="enable-background:new 0 0 216 216;" xml:space="preserve">
	 <style type="text/css">
	.hamburger-btn-bars{fill:#E2675B;}
</style>
<g id="XMLID_2_">
	<g id="XMLID_1_">
		<g id="XMLID_18_">
			<path id="XMLID_22_" class="hamburger-btn-bars" d="M30.4,61.6c45.4,0,90.7,0,136.1,0c6.3,0,12.7,0,19,0c7.8,0,15.4-6.9,15-15c-0.4-8.1-6.6-15-15-15
				c-45.4,0-90.7,0-136.1,0c-6.3,0-12.7,0-19,0c-7.8,0-15.4,6.9-15,15C15.8,54.7,22,61.6,30.4,61.6L30.4,61.6z"/>
		</g>
	</g>
	<g id="XMLID_3_">
		<g id="XMLID_23_">
			<path id="XMLID_27_" class="hamburger-btn-bars" d="M30.4,123c45.4,0,90.7,0,136.1,0c6.3,0,12.7,0,19,0c7.8,0,15.4-6.9,15-15c-0.4-8.1-6.6-15-15-15
				c-45.4,0-90.7,0-136.1,0c-6.3,0-12.7,0-19,0c-7.8,0-15.4,6.9-15,15C15.8,116.1,22,123,30.4,123L30.4,123z"/>
		</g>
	</g>
	<g id="XMLID_11_">
		<g id="XMLID_28_">
			<path id="XMLID_32_" class="hamburger-btn-bars" d="M30.4,184.4c45.4,0,90.7,0,136.1,0c6.3,0,12.7,0,19,0c7.8,0,15.4-6.9,15-15c-0.4-8.1-6.6-15-15-15
				c-45.4,0-90.7,0-136.1,0c-6.3,0-12.7,0-19,0c-7.8,0-15.4,6.9-15,15C15.8,177.6,22,184.4,30.4,184.4L30.4,184.4z"/>
		</g>
	</g>
</g>
</svg>
