<svg version="1.1" id="Layer_1" xmlns="http://www.w3.org/2000/svg" xmlns:xlink="http://www.w3.org/1999/xlink" x="0px" y="0px"
	 viewBox="0 0 216 216" style="enable-background:new 0 0 216 216;" xml:space="preserve">
<style type="text/css">
	.st0{fill:#7CCCBD;}
</style>
<g id="XMLID_154_">
	<path id="XMLID_2_" class="st0" d="M203.7,48H11.5C5.8,48,1.2,52.7,1.2,58.5v99.1c0,5.8,4.6,10.5,10.3,10.5h192.2
		c5.7,0,10.3-4.7,10.3-10.5V58.5C213.9,52.7,209.3,48,203.7,48z M104.8,162.9c-29.7,0-53.7-24.5-53.7-54.8c0-30.3,24-54.8,53.7-54.8
		c29.7,0,53.7,24.5,53.7,54.8C158.5,138.3,134.5,162.9,104.8,162.9z"/>
	<path id="XMLID_1_" class="st0" d="M135.1,79.1c-9.4-5.9-18,2.4-29.6,2.8c-0.7-12.6,2.3-12.9,2.3-12.9s6.8-6.9-0.7-3.4
		c-4.4,2-4.6,10-4,16.3c-11.4-0.6-21.7-7.4-28.9-2.5c-8.6,5.8-11.4,18-11.4,29.3c0,17.6,10.4,32.7,25.3,39.2
		c5.1,2.2,10.7,0.7,16.6,0.7c4.1,0,8.1,2.2,11.9,1c17.3-5.2,29.9-21.6,29.9-41C146.7,97.1,143.9,84.6,135.1,79.1z"/>
</g>
</svg>
