<svg version="1.1" id="Layer_1" xmlns="http://www.w3.org/2000/svg" xmlns:xlink="http://www.w3.org/1999/xlink" x="0px" y="0px"
	 viewBox="0 0 187.2 270" style="enable-background:new 0 0 187.2 270;" xml:space="preserve">
<path id="XMLID_29_" class="st0" d="M100,260.2c-3,4.3-9.4,4.3-12.4,0C67.3,231,3.9,136.3,3.9,94.6c0-49.7,40.3-90,90-90
	s90,40.3,90,90C183.8,136.3,120.4,231,100,260.2z M173.3,93.1c0-43.9-35.6-79.5-79.5-79.5S14.3,49.2,14.3,93.1s35.6,79.5,79.5,79.5
	S173.3,137,173.3,93.1z"/>
<g id="XMLID_154_">
	<path id="XMLID_2_" class="snap-icon" d="M148.9,51.5H38.2c-3.3,0-5.9,2.7-5.9,6v57c0,3.3,2.7,6,5.9,6h110.6c3.3,0,5.9-2.7,5.9-6v-57
		C154.8,54.2,152.1,51.5,148.9,51.5z M92,117.6c-17.1,0-30.9-14.1-30.9-31.5c0-17.4,13.8-31.5,30.9-31.5c17.1,0,30.9,14.1,30.9,31.5
		C122.9,103.5,109,117.6,92,117.6z"/>
	<path id="XMLID_1_" class="snap-icon" d="M109.4,69.4C104,66,99,70.8,92.4,71c-0.4-7.3,1.3-7.4,1.3-7.4s3.9-3.9-0.4-2
		c-2.5,1.2-2.6,5.8-2.3,9.4c-6.5-0.4-12.5-4.2-16.6-1.5c-4.9,3.3-6.5,10.3-6.5,16.9c0,10.1,6,18.8,14.6,22.6
		c2.9,1.3,6.2,0.4,9.5,0.4c2.4,0,4.7,1.3,6.9,0.6c10-3,17.2-12.4,17.2-23.6C116.1,79.8,114.5,72.6,109.4,69.4z"/>
</g>
<path id="XMLID_101_" class="stack-one" d="M144.9,137H42.2c-5.4,0-9.8-3.5-9.8-7.8v5.2c0,4.3,4.4,7.8,9.8,7.8h102.8
	c5.4,0,9.8-3.5,9.8-7.8v-5.2C154.8,133.6,150.4,137,144.9,137z"/>
<path id="XMLID_100_" class="stack-two" d="M144.9,126.1H42.2c-5.4,0-9.8-3.5-9.8-7.8v5.2c0,4.3,4.4,7.8,9.8,7.8h102.8
	c5.4,0,9.8-3.5,9.8-7.8v-5.2C154.8,122.6,150.4,126.1,144.9,126.1z"/>
</svg>
