<svg version="1.1" id="Layer_1" xmlns="http://www.w3.org/2000/svg" xmlns:xlink="http://www.w3.org/1999/xlink" x="0px" y="0px"
	 viewBox="0 0 216 216" style="enable-background:new 0 0 216 216;" xml:space="preserve">
<style type="text/css">
	.st0{fill:#EEC6DE;}
</style>
<g id="XMLID_158_">
	<path id="XMLID_165_" class="st0" d="M202.2,49.6H12.9c-5.6,0-10.1,4.7-10.1,10.3v97.7c0,5.7,4.6,10.3,10.1,10.3h189.4
		c5.6,0,10.1-4.7,10.1-10.3V59.9C212.4,54.2,207.8,49.6,202.2,49.6z M104.8,162.7c-29.2,0-52.9-24.2-52.9-54c0-29.8,23.7-54,52.9-54
		c29.2,0,52.9,24.2,52.9,54C157.8,138.5,134.1,162.7,104.8,162.7z"/>
	<path id="XMLID_164_" class="st0" d="M137.4,126.1c0-13.9-8.4-25.8-20.3-30.8c5-4,8.1-10.4,7.5-17.5c-0.8-9.9-8.6-17.9-18.3-18.5
		C94.7,58.5,85,67.8,85,79.5c0,6.5,3,12.2,7.6,15.9c-11.9,4.9-20.3,16.8-20.3,30.8c0,15.8,10.8,29,25.3,32.4
		c-5.6-2.7-9.5-8.6-9.5-15.3c0-7.1,4.3-13.2,10.4-15.8c-2.3-1.9-3.9-4.8-3.9-8.1c0-5.5,4.2-10.1,9.6-10.4
		c5.9-0.3,10.7,4.4,10.7,10.3c0,3.3-1.5,6.2-3.9,8.1c6.1,2.5,10.4,8.6,10.4,15.8c0,6.8-3.9,12.6-9.5,15.3
		C126.5,155.1,137.4,141.9,137.4,126.1z"/>
</g>
</svg>
