<svg version="1.1" id="Layer_1" xmlns="http://www.w3.org/2000/svg" xmlns:xlink="http://www.w3.org/1999/xlink" x="0px" y="0px"
	 viewBox="0 0 187.2 270" style="enable-background:new 0 0 187.2 270;" xml:space="preserve">
		<path id="XMLID_29_" class="arrow-marker" d="M100,260.2c-3,4.3-9.4,4.3-12.4,0C67.3,231,3.9,136.3,3.9,94.6c0-49.7,40.3-90,90-90
			s90,40.3,90,90C183.8,136.3,120.4,231,100,260.2z M173.3,93.1c0-43.9-35.6-79.5-79.5-79.5S14.3,49.2,14.3,93.1s35.6,79.5,79.5,79.5
			S173.3,137,173.3,93.1z"/>
		<g id="XMLID_158_">
			<path id="XMLID_165_" class="wic-icon" d="M148.9,49.2H38.2c-3.3,0-5.9,2.7-5.9,6v57c0,3.3,2.7,6,5.9,6h110.6c3.3,0,5.9-2.7,5.9-6v-57
				C154.8,51.9,152.1,49.2,148.9,49.2z M92,115.3c-17.1,0-30.9-14.1-30.9-31.5c0-17.4,13.8-31.5,30.9-31.5c17.1,0,30.9,14.1,30.9,31.5
				C122.9,101.1,109,115.3,92,115.3z"/>
			<path id="XMLID_164_" class="wic-icon" d="M111,93.9c0-8.1-4.9-15.1-11.9-18c2.9-2.3,4.7-6.1,4.4-10.2c-0.4-5.8-5-10.4-10.7-10.8
				c-6.8-0.5-12.4,5-12.4,11.8c0,3.8,1.7,7.1,4.4,9.3c-7,2.9-11.9,9.8-11.9,18c0,9.2,6.3,16.9,14.8,18.9c-3.3-1.6-5.5-5-5.5-9
				c0-4.2,2.5-7.7,6.1-9.2c-1.4-1.1-2.3-2.8-2.3-4.7c0-3.2,2.5-5.9,5.6-6.1c3.4-0.2,6.2,2.6,6.2,6c0,1.9-0.9,3.6-2.3,4.8
				c3.6,1.5,6.1,5,6.1,9.2c0,3.9-2.3,7.4-5.5,9C104.6,110.8,111,103.1,111,93.9z"/>
		</g>
		<path id="XMLID_101_" class="stack-one" d="M144.9,137H42.2c-5.4,0-9.8-3.5-9.8-7.8v5.2c0,4.3,4.4,7.8,9.8,7.8h102.8
			c5.4,0,9.8-3.5,9.8-7.8v-5.2C154.8,133.6,150.4,137,144.9,137z"/>
		<path id="XMLID_100_" class="stack-two" d="M144.9,126.1H42.2c-5.4,0-9.8-3.5-9.8-7.8v5.2c0,4.3,4.4,7.8,9.8,7.8h102.8
			c5.4,0,9.8-3.5,9.8-7.8v-5.2C154.8,122.6,150.4,126.1,144.9,126.1z"/>
</svg>
